<svg width="55" height="52" viewBox="0 0 55 52" fill="none" xmlns="http://www.w3.org/2000/svg">
<path d="M49.9031 0H47C42.5556 0 38.6444 2.93333 37.4 7.2L36.02 11.9314C33.6852 19.9365 32.5 28.2328 32.5 36.5714V49.5C32.5 50.6046 33.3954 51.5 34.5 51.5H53C54.1046 51.5 55 50.6046 55 49.5V28.5C55 27.3954 54.1046 26.5 53 26.5H50.6938C48.0696 26.5 46.1562 24.0156 46.8265 21.4784L51.8368 2.51078C52.1719 1.24218 51.2152 0 49.9031 0Z" fill="#315CFD"/>
<path d="M17.4031 0H14.5C10.0556 0 6.14444 2.93333 4.9 7.2L3.52 11.9314C1.18519 19.9365 0 28.2328 0 36.5714V49.5C0 50.6046 0.89543 51.5 2 51.5H20.5C21.6046 51.5 22.5 50.6046 22.5 49.5V28.5C22.5 27.3954 21.6046 26.5 20.5 26.5H18.1938C15.5696 26.5 13.6562 24.0156 14.3265 21.4784L19.3368 2.51078C19.6719 1.24218 18.7152 0 17.4031 0Z" fill="#315CFD"/>
</svg>
