<svg width="40" height="44" viewBox="0 0 40 44" fill="none" xmlns="http://www.w3.org/2000/svg">
<path d="M39.0822 22.0637C39.0822 13.1422 33.0537 5.36173 24.4107 3.14259C23.5842 2.92697 22.7396 3.43009 22.533 4.25665C22.3174 5.08322 22.8205 5.92775 23.6471 6.13439C30.9154 7.99415 35.9916 14.5527 35.9916 22.0637C35.9916 28.6852 32.0475 34.552 26.1447 37.1305L27.5732 33.8063C27.9057 33.0246 27.5463 32.1172 26.7647 31.7758C25.983 31.4434 25.0756 31.8027 24.7342 32.5844L21.949 39.0711C21.6166 39.8527 21.976 40.7602 22.7576 41.1016L29.2443 43.8867C30.2147 44.2281 31.0232 43.6621 31.2748 43.0781C31.6072 42.2965 31.2479 41.3891 30.4662 41.0477L27.6451 39.8348C34.5182 36.7262 39.0822 29.8262 39.0822 22.0637Z" fill="white"/>
<path d="M15.4352 37.993C8.1668 36.1242 3.09063 29.5746 3.09063 22.0637C3.09063 15.532 6.92695 9.73711 12.6949 7.10469L11.3562 10.2133C11.0238 10.9949 11.3652 11.9383 12.1648 12.2438C13.0992 12.5941 13.8898 12.1719 14.1953 11.4352L16.9805 4.93946C17.25 4.31055 17.241 3.36719 16.1719 2.90899L9.68516 0.12383C8.90351 -0.208592 7.99609 0.150783 7.65469 0.932423C7.32227 1.71406 7.68164 2.62149 8.46328 2.96289L11.482 4.25664C4.58203 7.37422 0 14.2832 0 22.0637C0 30.9852 6.0375 38.7566 14.6715 40.9848C15.7137 41.2543 16.3695 40.5715 16.5492 39.8707C16.7559 39.0441 16.2617 38.2086 15.4352 37.993Z" fill="white"/>
<path d="M23.1798 27.8855C23.9704 27.059 24.3657 26.0168 24.3657 24.7769C24.3657 24.2109 24.2669 23.6898 24.0782 23.2047C23.8896 22.7195 23.62 22.3062 23.2696 21.9469C22.9192 21.5965 22.461 21.3 21.904 21.0484C21.6075 20.9226 21.0146 20.7429 20.1071 20.5183V15.3613C20.6911 15.4781 21.1493 15.7297 21.4907 16.107C21.8231 16.4844 22.0478 17.0234 22.1556 17.7242L24.0063 17.4457C23.8446 16.3136 23.3774 15.4152 22.5958 14.7683C21.9849 14.2562 21.1583 13.9508 20.1161 13.8519V12.9984H19.056V13.8519C17.87 13.9687 16.9716 14.3011 16.3696 14.8312C15.4622 15.6219 15.013 16.6551 15.013 17.9308C15.013 18.6496 15.1657 19.2875 15.4802 19.8535C15.7856 20.4195 16.2259 20.8597 16.8009 21.1742C17.5735 21.6054 18.3282 21.8929 19.0649 22.0277V27.7328C18.3642 27.6609 17.7532 27.3015 17.2501 26.6636C16.8997 26.2144 16.6481 25.5047 16.5134 24.5433L14.7075 24.8847C14.7704 25.8101 15.013 26.6008 15.4173 27.2476C15.8216 27.8945 16.3067 28.3617 16.8728 28.6492C17.4298 28.9367 18.1665 29.1344 19.056 29.2511V31.039H20.1161V29.2242C21.3739 29.1613 22.3981 28.7121 23.1798 27.8855ZM19.0649 20.2937C18.2474 20.0511 17.6724 19.7187 17.331 19.3054C16.9896 18.8922 16.8188 18.3801 16.8188 17.7691C16.8188 17.1492 17.0165 16.6191 17.4208 16.1699C17.8251 15.7207 18.3731 15.4422 19.0649 15.3344V20.2937ZM21.8411 26.8164C21.3829 27.3375 20.8079 27.634 20.1161 27.7238V22.2703C21.0774 22.5847 21.7243 22.9351 22.0478 23.3304C22.3712 23.7258 22.5329 24.2469 22.5329 24.9027C22.5239 25.6574 22.2993 26.3043 21.8411 26.8164Z" fill="white"/>
</svg>
