<svg width="46" height="46" viewBox="0 0 46 46" fill="none" xmlns="http://www.w3.org/2000/svg">
<path d="M14.1885 10.3277H28.3816C28.7545 10.3277 29.0567 10.0254 29.0567 9.65245C29.0567 9.2795 28.7545 8.97717 28.3816 8.97717H14.1885C13.8155 8.97717 13.5132 9.2795 13.5132 9.65245C13.5132 10.0254 13.8155 10.3277 14.1885 10.3277Z" fill="white"/>
<path d="M1.4951 16.9302H15.6881C16.0611 16.9302 16.3634 16.6278 16.3634 16.2549C16.3634 15.8819 16.0611 15.5797 15.6881 15.5797H1.4951C1.12215 15.5797 0.819824 15.8819 0.819824 16.2549C0.819824 16.6278 1.12215 16.9302 1.4951 16.9302Z" fill="white"/>
<path d="M5.30518 23.8778C5.30518 24.2508 5.6075 24.5532 5.98045 24.5532H20.1735C20.5464 24.5532 20.8487 24.2508 20.8487 23.8778C20.8487 23.5049 20.5464 23.2026 20.1735 23.2026H5.98045C5.6075 23.2026 5.30518 23.5049 5.30518 23.8778Z" fill="white"/>
<path d="M13.4278 31.726H0.675274C0.302322 31.726 0 32.0282 0 32.4011C0 32.7741 0.302322 33.0764 0.675274 33.0764H13.4278C13.8007 33.0764 14.103 32.7741 14.103 32.4011C14.103 32.0282 13.8007 31.726 13.4278 31.726Z" fill="white"/>
<path d="M36.3739 14.5614C38.4108 14.5614 40.0621 12.91 40.0621 10.873C40.0621 8.83606 38.4107 7.18469 36.3739 7.18469C34.3366 7.18469 32.6851 8.83615 32.6851 10.873C32.685 12.91 34.3365 14.5614 36.3739 14.5614Z" fill="white"/>
<path d="M42.4405 13.4993C40.3226 16.4659 37.4867 16.8094 34.435 14.9978C34.2273 14.8746 33.3056 14.3668 33.1015 14.2455C28.1922 11.3311 23.2887 12.474 20.0002 17.0792C18.6028 19.0379 21.8348 20.8945 23.2166 18.9586C24.9156 16.5792 27.0761 15.8908 29.439 16.6444C28.2291 18.7444 27.1714 20.8318 25.6788 23.7973C24.1859 26.7628 20.8896 29.131 17.7224 27.2788C15.4371 25.943 13.3762 29.2262 15.6546 30.5578C19.9786 33.0849 25.0486 31.5331 27.6368 28.2481C27.7266 28.2961 27.8214 28.3394 27.9256 28.3758C30.0399 29.1124 32.8116 31.0737 33.6561 31.7687C34.5004 32.4638 35.9509 36.0047 36.8124 37.7839C37.8574 39.9427 41.2323 38.3703 40.1834 36.2024C39.2069 34.1838 37.5679 30.1551 36.2895 29.1358C35.264 28.3183 33.2731 26.7969 31.5844 25.9338C32.7269 23.721 33.9164 21.532 35.1686 19.3809C39.16 20.6038 42.954 19.1632 45.656 15.3783C47.0545 13.4198 43.8233 11.5633 42.4405 13.4993Z" fill="white"/>
</svg>
