<svg width="70" height="70" viewBox="0 0 70 70" fill="none" xmlns="http://www.w3.org/2000/svg">
<path d="M13.3429 1.53398C20.013 10.3091 23.7601 19.9448 26.5789 31.6248H16.0002L17.7051 33.7098L21.5931 38.4649L34.5044 54.6319L37.6917 50.6073L51.5044 33.7096L53.2093 31.6247H42.9852C45.8043 19.9445 49.551 10.3093 56.2215 1.53398H45.3523C39.5814 11.2046 37.8519 21.5027 36.3713 34.1797H47.8215L34.6069 50.3467L21.3879 34.1797H33.1798C31.7252 21.489 29.7334 11.0752 24.0368 1.53398H13.3429ZM14.0094 51.1027C13.1098 51.3304 12.2498 51.5709 11.4372 51.825C8.47859 52.7501 6.12635 53.8505 4.60125 54.978C3.07629 56.1055 2.47363 57.1482 2.47363 58.0501C2.47363 58.9518 3.07629 59.9942 4.60125 61.1218C6.12635 62.2493 8.47859 63.3497 11.4372 64.2749C17.3541 66.1251 25.677 67.2998 34.8674 67.2998C44.058 67.2998 52.3808 66.1251 58.2977 64.2749C61.2563 63.3497 63.6087 62.2493 65.1336 61.1218C66.6587 59.9944 67.2614 58.9518 67.2614 58.05C67.2614 57.1482 66.6584 56.1055 65.1335 54.9779C63.6085 53.8505 61.2561 52.7501 58.2975 51.8249C57.4849 51.5709 56.6251 51.3304 55.7256 51.103C58.3031 52.3526 59.8058 53.8456 59.8058 55.4523C59.8058 59.8363 48.6407 63.3905 34.8674 63.3905C21.0943 63.3905 9.92918 59.8363 9.92918 55.4523C9.92918 53.8459 11.4317 52.3525 14.0094 51.1029V51.1027ZM22.7507 51.8848C22.0842 52.0451 21.4501 52.2179 20.8623 52.4016C19.1096 52.9498 17.7269 53.6056 16.8761 54.2347C16.0252 54.8636 15.7951 55.3565 15.7951 55.6829C15.7951 56.0097 16.0253 56.5024 16.8761 57.1315C17.7271 57.7604 19.1096 58.4162 20.8624 58.9643C24.3682 60.0608 29.3564 60.7677 34.8675 60.7677C40.3786 60.7677 45.3713 60.0608 48.8771 58.9643C50.6298 58.4164 52.0082 57.7607 52.859 57.1316C53.7098 56.5027 53.9399 56.0098 53.9399 55.6832C53.9399 55.3569 53.7099 54.864 52.8591 54.2351C52.0083 53.6062 50.6301 52.9502 48.8772 52.4021C48.2882 52.2181 47.6528 52.046 46.9845 51.8853C48.1728 52.5398 48.8559 53.301 48.8559 54.1111C48.8559 56.5703 42.5931 58.5632 34.8678 58.5632C27.1426 58.5632 20.8801 56.5703 20.8801 54.1112C20.8801 53.3014 21.5639 52.5398 22.7512 51.8854L22.7507 51.8848Z" fill="#315CFD"/>
</svg>
