<svg width="46" height="46" viewBox="0 0 46 46" fill="none" xmlns="http://www.w3.org/2000/svg">
<g clip-path="url(#clip0_40_1242)">
<path d="M24.4546 0.178711C24.11 0.178711 23.7877 0.348362 23.5926 0.632462C23.0226 1.4626 9.63232 21.0781 9.63232 30.9992C9.63232 39.1721 16.2815 45.8213 24.4544 45.8213C32.6274 45.8213 39.2764 39.1721 39.2764 30.9992C39.2764 21.0781 25.8862 1.4626 25.3162 0.632462C25.1215 0.348502 24.799 0.178711 24.4546 0.178711ZM24.4546 43.7303C17.4346 43.7303 11.7235 38.0191 11.7235 30.9992C11.7235 23.1082 21.4637 7.66441 24.4546 3.10878C27.4454 7.66441 37.1855 23.1081 37.1855 30.9992C37.1855 38.0191 31.4744 43.7303 24.4546 43.7303Z" fill="white"/>
<path d="M23.4092 39.8965C23.4092 40.4739 23.8771 40.942 24.4547 40.942C29.9373 40.942 34.3979 36.4817 34.3979 30.9995C34.3979 30.4221 33.9299 29.954 33.3524 29.954C32.7748 29.954 32.3069 30.4221 32.3069 30.9995C32.3069 35.3289 28.7843 38.851 24.4547 38.851C23.8771 38.851 23.4092 39.3191 23.4092 39.8965Z" fill="white"/>
<path d="M44.9543 4.41322H42.9227V2.38145C42.9227 1.80405 42.4547 1.33594 41.8772 1.33594C41.2996 1.33594 40.8317 1.80405 40.8317 2.38145V4.41322H38.7999C38.2224 4.41322 37.7544 4.88133 37.7544 5.45873C37.7544 6.03613 38.2224 6.50423 38.7999 6.50423H40.8317V8.53601C40.8317 9.11341 41.2996 9.58151 41.8772 9.58151C42.4547 9.58151 42.9227 9.11341 42.9227 8.53601V6.50423H44.9543C45.5319 6.50423 45.9998 6.03613 45.9998 5.45873C45.9998 4.88133 45.5319 4.41322 44.9543 4.41322Z" fill="white"/>
<path d="M7.20007 35.8947H5.1683V33.8629C5.1683 33.2855 4.70033 32.8174 4.12279 32.8174C3.54525 32.8174 3.07728 33.2855 3.07728 33.8629V35.8947H1.04551C0.46797 35.8947 0 36.3628 0 36.9402C0 37.5176 0.46797 37.9857 1.04551 37.9857H3.07728V40.0174C3.07728 40.5948 3.54525 41.063 4.12279 41.063C4.70033 41.063 5.1683 40.5948 5.1683 40.0174V37.9857H7.20007C7.77761 37.9857 8.24558 37.5176 8.24558 36.9402C8.24558 36.3628 7.77761 35.8947 7.20007 35.8947Z" fill="white"/>
</g>
<defs>
<clipPath id="clip0_40_1242">
<rect width="46" height="46" fill="white"/>
</clipPath>
</defs>
</svg>
