<svg width="20" height="20" viewBox="0 0 20 20" fill="none" xmlns="http://www.w3.org/2000/svg">
<g clip-path="url(#clip0_40_1424)">
<path d="M19.9554 7.67797C19.8484 7.34876 19.5639 7.10884 19.2214 7.05914L13.413 6.21523L10.8153 0.951457C10.6621 0.641099 10.346 0.44458 9.99997 0.44458C9.65384 0.44458 9.33773 0.641099 9.18461 0.951457L6.58712 6.21517L0.778527 7.05908C0.436042 7.10884 0.151447 7.34876 0.0445189 7.67791C-0.062409 8.00712 0.0267582 8.36846 0.27462 8.61002L4.47772 12.7066L3.48512 18.4922C3.42663 18.8334 3.56684 19.1781 3.84682 19.3815C4.00522 19.4967 4.19282 19.5552 4.38134 19.5552C4.52603 19.5552 4.67133 19.5207 4.80439 19.4508L9.9999 16.7194L15.1954 19.4508C15.3292 19.5211 15.4758 19.5547 15.621 19.5552C16.1226 19.5545 16.5289 19.1477 16.5289 18.646C16.5289 18.5761 16.5211 18.5081 16.5061 18.4428L15.5221 12.7067L19.7253 8.61002C19.9732 8.36846 20.0623 8.00712 19.9554 7.67797Z" fill="#FD9331"/>
</g>
<defs>
<clipPath id="clip0_40_1424">
<rect width="20" height="20" fill="white"/>
</clipPath>
</defs>
</svg>
