<svg width="48" height="48" viewBox="0 0 48 48" fill="none" xmlns="http://www.w3.org/2000/svg">
<path d="M19.0221 28.9902C19.227 29.1953 19.3422 29.4734 19.3422 29.7634C19.3422 30.0533 19.227 30.3314 19.0221 30.5365L6.71055 42.8494C6.60893 42.9509 6.48831 43.0315 6.35557 43.0864C6.22283 43.1413 6.08057 43.1695 5.93692 43.1695C5.64681 43.1693 5.36863 43.054 5.16358 42.8487C4.95853 42.6435 4.8434 42.3652 4.84353 42.0751C4.84366 41.785 4.95903 41.5068 5.16426 41.3018L17.4758 28.9902C17.6809 28.7853 17.959 28.6701 18.2489 28.6701C18.5389 28.6701 18.817 28.7853 19.0221 28.9902ZM47.5607 42.1152C47.5052 42.2959 47.4038 42.4592 47.2663 42.589C47.1289 42.7188 46.9602 42.8108 46.7766 42.8559C46.593 42.9011 46.4009 42.8979 46.2189 42.8467C46.0369 42.7955 45.8713 42.698 45.7383 42.5637L42.0264 38.8518L40.0098 40.8697L43.7231 44.5844C43.8563 44.7179 43.9527 44.8836 44.003 45.0654C44.0533 45.2471 44.0557 45.4388 44.01 45.6218C43.9643 45.8048 43.8721 45.9729 43.7423 46.1097C43.6125 46.2466 43.4495 46.3475 43.2691 46.4027C42.6007 46.6051 41.9058 46.707 41.2074 46.7049C39.0691 46.7049 36.8639 45.7889 35.2041 44.1291C33.6168 42.5418 32.6953 40.4691 32.6311 38.3787L25.4697 31.216C25.381 31.1669 25.2996 31.1057 25.2277 31.0342L24.4662 30.2727C24.1788 31.2238 23.6597 32.0887 22.9555 32.7896L9.6295 46.1156C8.57135 47.1861 7.14548 47.8137 5.64141 47.8711H5.43633C4.73792 47.8781 4.04509 47.7461 3.3982 47.4827C2.75131 47.2194 2.16328 46.8299 1.66836 46.3371C-0.463081 44.2057 -0.36191 40.6346 1.89532 38.3773L15.2213 25.0514C15.9223 24.3479 16.7865 23.8288 17.7369 23.5406L16.9781 22.7818C16.9066 22.71 16.8454 22.6285 16.7963 22.5398L9.61172 15.3539C7.52266 15.291 5.45137 14.3695 3.86954 12.7822C1.667 10.577 0.774223 7.41328 1.59454 4.71582C1.64966 4.53521 1.75059 4.37196 1.88753 4.24194C2.02446 4.11192 2.19272 4.01956 2.37594 3.97386C2.55915 3.92816 2.75108 3.93067 2.93303 3.98115C3.11499 4.03163 3.28078 4.12835 3.41426 4.26191L7.12754 7.97382L9.14551 5.95449L5.42676 2.24941C5.2932 2.11593 5.19648 1.95014 5.146 1.76818C5.09552 1.58623 5.09301 1.3943 5.13871 1.21109C5.18441 1.02787 5.27677 0.85961 5.40679 0.722678C5.53681 0.585745 5.70006 0.484805 5.88067 0.429684C8.57539 -0.390628 11.7418 0.499412 13.9471 2.70332C15.5357 4.29062 16.4572 6.36328 16.5215 8.45508L26.0918 18.0254L40.8315 3.27617C40.9071 3.19856 40.9942 3.13307 41.0899 3.08203L46.1895 0.347653C46.3961 0.237784 46.6324 0.197066 46.8639 0.231483C47.0953 0.265901 47.3097 0.373638 47.4753 0.538868C47.641 0.704098 47.7494 0.918109 47.7844 1.14946C47.8195 1.38082 47.7794 1.61732 47.6701 1.82422L44.9248 6.92383C44.8743 7.01786 44.8103 7.104 44.7348 7.17949L29.9897 21.9246L39.5395 31.4744C41.6285 31.5373 43.6984 32.4588 45.2816 34.0461C47.4897 36.2514 48.3811 39.4164 47.5607 42.1098V42.1152ZM27.6545 27.0598L20.9553 20.3605L19.3297 21.9848L26.0289 28.684L27.6545 27.0598ZM25.4451 21.7551L26.2559 22.5658L43.0723 5.74941L44.0156 3.99668L42.2615 4.93867L25.4451 21.7551ZM10.8381 13.4918L17.782 20.4357L20.1801 18.0377C20.3852 17.8327 20.6633 17.7176 20.9532 17.7176C21.2432 17.7176 21.5213 17.8327 21.7264 18.0377L23.8975 20.2088L24.5387 19.5676L14.6525 9.68144C14.5465 9.57545 14.4634 9.44879 14.4083 9.30932C14.3533 9.16985 14.3275 9.02055 14.3326 8.8707C14.3887 7.21914 13.6846 5.53476 12.3994 4.25097C11.3857 3.21834 10.0581 2.55097 8.62461 2.35332L11.4602 5.19023C11.6651 5.39533 11.7803 5.67342 11.7803 5.96338C11.7803 6.25333 11.6651 6.53142 11.4602 6.73652L7.89454 10.3021C7.68944 10.5071 7.41135 10.6222 7.12139 10.6222C6.83143 10.6222 6.55334 10.5071 6.34825 10.3021L3.51407 7.46797C3.71229 8.89936 4.37743 10.2253 5.40625 11.24C6.69141 12.5238 8.37442 13.2279 10.0232 13.1719H10.0615C10.2057 13.1714 10.3485 13.1994 10.4817 13.2543C10.615 13.3092 10.7361 13.3899 10.8381 13.4918ZM22.5152 28.3217L19.6879 25.4957C19.1506 25.4567 18.6112 25.5351 18.1071 25.7254C17.6031 25.9156 17.1465 26.2133 16.7689 26.5977L3.44161 39.9277C2.0375 41.3318 1.9377 43.5152 3.21602 44.7949C3.52413 45.098 3.89195 45.3337 4.2961 45.4869C4.70024 45.6402 5.13186 45.7076 5.56348 45.685C6.51415 45.6464 7.41452 45.2475 8.08184 44.5693L21.4092 31.2461C22.0874 30.5788 22.4862 29.6784 22.5248 28.7277C22.53 28.5923 22.5268 28.4567 22.5152 28.3217ZM45.6357 39.3645C45.4374 37.9326 44.7706 36.6067 43.7395 35.5937C42.4543 34.3086 40.7713 33.6059 39.1238 33.6619C38.974 33.667 38.8247 33.6412 38.6852 33.5862C38.5457 33.5312 38.4191 33.448 38.3131 33.342L28.4434 23.4723L27.8022 24.1135L29.9746 26.2873C30.1796 26.4924 30.2947 26.7705 30.2947 27.0604C30.2947 27.3504 30.1796 27.6285 29.9746 27.8336L27.5779 30.2303L34.4973 37.1523C34.6031 37.2582 34.6862 37.3846 34.7412 37.5238C34.7962 37.6631 34.8221 37.8121 34.8172 37.9617C34.7625 39.6133 35.4666 41.2977 36.7504 42.5828C37.7646 43.6146 39.092 44.2814 40.5252 44.4791L37.6897 41.6436C37.588 41.542 37.5073 41.4213 37.4522 41.2886C37.3972 41.1558 37.3689 41.0135 37.3689 40.8697C37.3689 40.726 37.3972 40.5837 37.4522 40.4509C37.5073 40.3181 37.588 40.1975 37.6897 40.0959L41.2553 36.5303C41.4604 36.3253 41.7385 36.2102 42.0284 36.2102C42.3184 36.2102 42.5965 36.3253 42.8016 36.5303L45.6357 39.3645Z" fill="#315CFD"/>
</svg>
