<svg width="70" height="70" viewBox="0 0 70 70" fill="none" xmlns="http://www.w3.org/2000/svg">
<path d="M35.1282 6.5625C34.543 6.54534 33.9603 6.64582 33.4146 6.85799C32.8689 7.07016 32.3713 7.38969 31.9514 7.79767C31.5315 8.20565 31.1977 8.69377 30.9699 9.2331C30.742 9.77244 30.6247 10.352 30.625 10.9375C30.625 12.0978 31.0859 13.2106 31.9064 14.0311C32.7269 14.8516 33.8397 15.3125 35 15.3125C36.1603 15.3125 37.2731 14.8516 38.0936 14.0311C38.9141 13.2106 39.375 12.0978 39.375 10.9375C39.3755 9.79904 38.9322 8.70522 38.1392 7.88834C37.3462 7.07145 36.2661 6.59584 35.1281 6.5625H35.1282ZM6.69074 21.875C6.10551 21.8578 5.52278 21.9583 4.97709 22.1705C4.4314 22.3827 3.93385 22.7022 3.51391 23.1102C3.09397 23.5182 2.7602 24.0063 2.53236 24.5456C2.30452 25.0849 2.18725 25.6645 2.1875 26.25C2.1875 27.4103 2.64844 28.5231 3.46891 29.3436C4.28938 30.1641 5.40218 30.625 6.5625 30.625C7.72282 30.625 8.83562 30.1641 9.65609 29.3436C10.4766 28.5231 10.9375 27.4103 10.9375 26.25C10.938 25.1115 10.4947 24.0177 9.70171 23.2008C8.90874 22.384 7.82858 21.9083 6.69061 21.875H6.69074ZM35.064 21.875C34.7714 21.8664 34.48 21.9167 34.2072 22.0228C33.9344 22.1289 33.6856 22.2887 33.4757 22.4926C33.2657 22.6966 33.0988 22.9407 32.9849 23.2103C32.871 23.48 32.8124 23.7698 32.8125 24.0625C32.8125 24.6427 33.043 25.1991 33.4532 25.6093C33.8634 26.0195 34.4198 26.25 35 26.25C35.5802 26.25 36.1366 26.0195 36.5468 25.6093C36.957 25.1991 37.1875 24.6427 37.1875 24.0625C37.1877 23.4933 36.9661 22.9464 36.5697 22.538C36.1732 22.1296 35.6332 21.8917 35.0643 21.875H35.064ZM63.5657 21.875C62.9805 21.8578 62.3978 21.9583 61.8521 22.1705C61.3064 22.3827 60.8088 22.7022 60.3889 23.1102C59.969 23.5182 59.6352 24.0063 59.4074 24.5456C59.1795 25.0849 59.0622 25.6645 59.0625 26.25C59.0625 27.4103 59.5234 28.5231 60.3439 29.3436C61.1644 30.1641 62.2772 30.625 63.4375 30.625C64.5978 30.625 65.7106 30.1641 66.5311 29.3436C67.3516 28.5231 67.8125 27.4103 67.8125 26.25C67.813 25.1115 67.3697 24.0177 66.5767 23.2008C65.7837 22.384 64.7036 21.9083 63.5656 21.875H63.5657ZM26.25 28.4375C19.6875 28.4375 24.0625 32.8125 26.25 35C26.25 36.56 26.1972 37.9928 26.1133 39.375C28.7916 38.0114 31.7885 37.1875 35 37.1875C38.2115 37.1875 41.2084 38.0114 43.8867 39.375C43.8028 37.9928 43.75 36.56 43.75 35C45.9375 32.8125 50.3125 28.4375 43.75 28.4375C41.5625 28.4375 39.375 30.625 35 30.625C30.625 30.625 28.4375 28.4375 26.25 28.4375ZM17.2266 32.6758C16.5339 32.7113 15.7268 33.4031 14.7656 35.0684C13.6719 36.9627 14.4238 39.961 12.2363 43.75C10.0488 47.539 7.10938 48.3495 6.01563 50.2441C2.73438 55.9275 8.70105 54.326 11.6895 53.5254C13.0085 54.2869 14.2406 55.0378 15.3809 55.7813C15.7414 49.3418 19.1808 43.7236 24.2676 40.4004C23.0487 39.7759 21.7878 39.1281 20.4395 38.3496C19.8889 36.2953 18.9533 32.7953 17.3633 32.6758C17.3182 32.6724 17.2728 32.6735 17.2266 32.6758ZM52.6367 32.6758C51.0464 32.795 50.111 36.2951 49.5605 38.3496C48.2122 39.1281 46.9513 39.7759 45.7324 40.4004C50.8192 43.7236 54.2586 49.3418 54.6191 55.7813C55.7594 55.0378 56.9915 54.2869 58.3105 53.5254C61.2987 54.326 67.2656 55.9275 63.9844 50.2441C62.8906 48.3498 59.9512 47.539 57.7637 43.75C55.5762 39.961 56.3281 36.963 55.2344 35.0684C54.209 33.2924 53.3594 32.6218 52.6367 32.6758ZM6.62676 35C6.33413 34.9914 6.04275 35.0416 5.76989 35.1477C5.49703 35.2538 5.24824 35.4135 5.03825 35.6175C4.82827 35.8215 4.66137 36.0656 4.54744 36.3353C4.43351 36.6049 4.37487 36.8947 4.375 37.1875C4.375 37.7677 4.60547 38.3241 5.0157 38.7343C5.42594 39.1445 5.98234 39.375 6.5625 39.375C7.14266 39.375 7.69906 39.1445 8.1093 38.7343C8.51953 38.3241 8.75 37.7677 8.75 37.1875C8.75025 36.6183 8.52862 36.0714 8.13218 35.663C7.73574 35.2546 7.19571 35.0167 6.62676 35ZM63.5018 35C63.2091 34.9914 62.9178 35.0416 62.6449 35.1477C62.372 35.2538 62.1232 35.4135 61.9133 35.6175C61.7033 35.8215 61.5364 36.0656 61.4224 36.3353C61.3085 36.6049 61.2499 36.8947 61.25 37.1875C61.25 37.7677 61.4805 38.3241 61.8907 38.7343C62.3009 39.1445 62.8573 39.375 63.4375 39.375C64.0177 39.375 64.5741 39.1445 64.9843 38.7343C65.3945 38.3241 65.625 37.7677 65.625 37.1875C65.6252 36.6183 65.4036 36.0714 65.0072 35.663C64.6107 35.2546 64.0707 35.0167 63.5018 35ZM35 41.5625C26.25 41.5625 19.6875 48.125 19.6875 56.875V63.4375H50.3125V56.875C50.3125 48.125 43.75 41.5625 35 41.5625Z" fill="#315CFD"/>
</svg>
