<svg width="70" height="70" viewBox="0 0 70 70" fill="none" xmlns="http://www.w3.org/2000/svg">
<g clip-path="url(#clip0_40_1332)">
<path d="M18.6665 17.5C18.9651 17.5 19.2638 17.3857 19.4913 17.1582L24.158 12.4915C24.6141 12.0353 24.6141 11.298 24.158 10.8418C23.7018 10.3857 22.9645 10.3857 22.5083 10.8418L17.8416 15.5085C17.3855 15.9647 17.3855 16.702 17.8416 17.1582C18.0691 17.3857 18.3678 17.5 18.6665 17.5Z" fill="#315CFD"/>
<path d="M20.175 19.0085L17.8416 21.3418C17.3855 21.798 17.3855 22.5353 17.8416 22.9915C18.0691 23.219 18.3678 23.3333 18.6665 23.3333C18.9651 23.3333 19.2638 23.219 19.4913 22.9915L21.8246 20.6582C22.2808 20.202 22.2808 19.4647 21.8246 19.0085C21.3685 18.5523 20.6311 18.5523 20.175 19.0085Z" fill="#315CFD"/>
<path d="M22.5048 16.6717C22.2948 16.8922 22.1665 17.1967 22.1665 17.5C22.1665 17.8033 22.2948 18.1067 22.5048 18.3283C22.7265 18.5383 23.0298 18.6667 23.3332 18.6667C23.6365 18.6667 23.9398 18.5383 24.1615 18.3283C24.3715 18.1067 24.4998 17.8033 24.4998 17.5C24.4998 17.1967 24.3715 16.8922 24.1615 16.6717C23.7298 16.24 22.9365 16.24 22.5048 16.6717Z" fill="#315CFD"/>
<path d="M28.3416 10.8418L24.8416 14.3418C24.3855 14.798 24.3855 15.5353 24.8416 15.9915C25.0691 16.219 25.3678 16.3333 25.6665 16.3333C25.9651 16.3333 26.2638 16.219 26.4913 15.9915L29.9913 12.4915C30.4475 12.0353 30.4475 11.298 29.9913 10.8418C29.5351 10.3857 28.7978 10.3857 28.3416 10.8418Z" fill="#315CFD"/>
<path d="M50.5083 35.3418L45.8416 40.0085C45.3855 40.4647 45.3855 41.202 45.8416 41.6582C46.0691 41.8857 46.3678 42 46.6665 42C46.9651 42 47.2638 41.8857 47.4913 41.6582L52.158 36.9915C52.6141 36.5353 52.6141 35.798 52.158 35.3418C51.7018 34.8857 50.9645 34.8857 50.5083 35.3418Z" fill="#315CFD"/>
<path d="M49 33.8333C49.2986 33.8333 49.5973 33.719 49.8248 33.4915L52.1581 31.1582C52.6143 30.702 52.6143 29.9647 52.1581 29.5085C51.702 29.0523 50.9646 29.0523 50.5085 29.5085L48.1751 31.8418C47.719 32.298 47.719 33.0353 48.1751 33.4915C48.4026 33.719 48.7013 33.8333 49 33.8333Z" fill="#315CFD"/>
<path d="M46.6667 36.1667C46.97 36.1667 47.2733 36.0383 47.495 35.8283C47.705 35.6067 47.8333 35.3033 47.8333 35C47.8333 34.6967 47.705 34.3922 47.495 34.1717C47.0517 33.74 46.2817 33.74 45.8383 34.1717C45.6283 34.3922 45.5 34.6967 45.5 35C45.5 35.3033 45.6283 35.6067 45.8383 35.8283C46.06 36.0383 46.3633 36.1667 46.6667 36.1667Z" fill="#315CFD"/>
<path d="M45.1583 36.5085C44.7021 36.0523 43.9648 36.0523 43.5086 36.5085L40.0086 40.0085C39.5525 40.4647 39.5525 41.202 40.0086 41.6582C40.2361 41.8857 40.5348 42 40.8335 42C41.1321 42 41.4308 41.8857 41.6583 41.6582L45.1583 38.1582C45.6145 37.702 45.6145 36.9647 45.1583 36.5085Z" fill="#315CFD"/>
<path d="M67.6667 4.66667H68.8333C69.4773 4.66667 70 4.14517 70 3.5C70 2.85483 69.4773 2.33333 68.8333 2.33333H67.6667V1.16667C67.6667 0.5215 67.144 0 66.5 0C65.856 0 65.3333 0.5215 65.3333 1.16667V2.33333H63V1.16667C63 0.5215 62.4773 0 61.8333 0C61.1893 0 60.6667 0.5215 60.6667 1.16667V2.33333H58.3333V1.16667C58.3333 0.5215 57.8107 0 57.1667 0C56.5227 0 56 0.5215 56 1.16667V2.33333H14V1.16667C14 0.5215 13.4773 0 12.8333 0C12.1893 0 11.6667 0.5215 11.6667 1.16667V2.33333H9.33333V1.16667C9.33333 0.5215 8.81067 0 8.16667 0C7.52267 0 7 0.5215 7 1.16667V2.33333H4.66667V1.16667C4.66667 0.5215 4.144 0 3.5 0C2.856 0 2.33333 0.5215 2.33333 1.16667V2.33333H1.16667C0.522667 2.33333 0 2.85483 0 3.5C0 4.14517 0.522667 4.66667 1.16667 4.66667H2.33333V5.83333H0V70H4.66667H7H9.33333H11.6667H16.3333V53.6667H53.6667V70H58.3333H60.6667H63H65.3333H70V5.83333H67.6667V4.66667ZM56 4.66667V5.83333H53.6667H36.1667V23.3333C35.5227 23.3333 35 23.8548 35 24.5C35 25.1452 35.5227 25.6667 36.1667 25.6667V45.5H53.6667V46.6667H16.3333V45.5H33.8333V5.83333H16.3333H14V4.66667H56ZM38.5 25.6667H40.8333C41.4773 25.6667 42 25.1452 42 24.5C42 23.8548 41.4773 23.3333 40.8333 23.3333H38.5V8.16667H53.6667V43.1667H38.5V25.6667ZM16.3333 43.1667V8.16667H31.5V43.1667H16.3333ZM4.66667 67.6667H2.33333V8.16667H4.66667V67.6667ZM4.66667 5.83333V4.66667H7V5.83333H4.66667ZM9.33333 67.6667H7V8.16667H9.33333V67.6667ZM9.33333 5.83333V4.66667H11.6667V5.83333H9.33333ZM14 67.6667H11.6667V8.16667H14V43.1667V46.6667V49V53.6667V67.6667ZM16.3333 51.3333V49H53.6667V51.3333H16.3333ZM58.3333 67.6667H56V53.6667V49V46.6667V43.1667V8.16667H58.3333V67.6667ZM58.3333 5.83333V4.66667H60.6667V5.83333H58.3333ZM63 67.6667H60.6667V8.16667H63V67.6667ZM67.6667 67.6667H65.3333V8.16667H67.6667V67.6667ZM63 5.83333V4.66667H65.3333V5.83333H63Z" fill="#315CFD"/>
</g>
<defs>
<clipPath id="clip0_40_1332">
<rect width="70" height="70" fill="white"/>
</clipPath>
</defs>
</svg>
